<?xml version="1.0" encoding="UTF-8" standalone="no"?>
<!-- Created with Inkscape (http://www.inkscape.org/) -->

<svg
   width="1920"
   height="1080"
   viewBox="0 0 508 285.75001"
   version="1.1"
   id="svg17088"
   xmlns="http://www.w3.org/2000/svg"
   xmlns:svg="http://www.w3.org/2000/svg">
  <defs
     id="defs17085">
    <clipPath
       clipPathUnits="userSpaceOnUse"
       id="clipPath23150">
      <rect
         style="fill:#c17d11;fill-opacity:1;stroke:none;stroke-width:79.375;stroke-linecap:square;stroke-miterlimit:2;stroke-dasharray:none;stroke-opacity:0.997449;paint-order:markers fill stroke"
         id="rect23152"
         width="508"
         height="285.75"
         x="4.4444446e-06"
         y="2.4999999e-06"
         ry="1.8779241" />
    </clipPath>
  </defs>
  <g
     id="layer1">
    <path
       id="path22279"
       style="color:#000000;fill:#eff6fc;fill-opacity:0.0235294;stroke-width:5.43167;stroke-linecap:square;stroke-miterlimit:2;paint-order:markers fill stroke"
       d="M 119.65476,-236.69548 -129.08849,250.11303 Z M 646.95386,32.737051 398.21056,519.5456 Z M 129.38676,-231.72263 -119.3564,255.0857 l 5.06147,2.58623 248.74309,-486.80833 z m 12.1499,6.20824 -248.74309,486.80832 5.2869,2.70142 248.74309,-486.80832 z m 12.1505,6.20848 -248.74312,486.80832 5.51172,2.81631 248.7431,-486.80832 z m 12.1499,6.20823 -248.74304,486.80831 5.73674,2.93129 248.7431,-486.80832 z m 12.1504,6.20844 -248.74309,486.80831 5.96168,3.04622 248.74311,-486.80831 z m 12.1505,6.20848 -248.74314,486.80834 6.1866,3.16112 248.74314,-486.80832 z m 12.1503,6.20843 -248.74309,486.80832 6.41154,3.27609 248.74305,-486.80833 z m 12.1504,6.20844 -248.74313,486.80832 6.63656,3.39106 248.74307,-486.80832 z m 12.1504,6.20848 -248.74308,486.80832 6.86139,3.50593 248.74309,-486.80831 z m 12.15,6.20823 -248.743108,486.80832 7.0864202,3.62092 248.7430878,-486.80831 z m 12.1504,6.20848 L 2.1464022,317.16962 9.4576606,320.90543 258.20076,-165.90288 Z m 12.15,6.20824 -248.74309,486.80831 7.53657,3.85098 248.74312,-486.80835 z m 12.1504,6.20844 -248.74317,486.80833 7.7616,3.96591 248.74307,-486.80832 z m 12.1504,6.20848 -248.74307,486.80833 7.9864,4.0808 248.74307,-486.80833 z m 12.1504,6.20843 -248.74317,486.80831 8.2111,4.19561 248.74307,-486.80833 z m 12.15,6.20829 -248.74307,486.80831 8.4363,4.31067 248.74307,-486.80831 z m 12.1504,6.20843 -248.74307,486.80834 8.6613,4.42565 248.74307,-486.80834 z m 12.1503,6.20843 -248.74307,486.80833 8.886294,4.54058 248.743076,-486.80832 z m 12.1505,6.20848 -248.743094,486.80833 9.111094,4.65551 248.7432,-486.80832 z m 12.15,6.20824 -248.7432,486.80832 9.3362,4.77046 248.7431,-486.80833 z m 12.1504,6.20849 -248.7431,486.80831 9.561,4.88538 248.7432,-486.80831 z m 12.1504,6.20843 -248.7432,486.80834 9.786,5.00029 248.7431,-486.808327 z m 12.1503,6.20842 -248.7431,486.80832 10.011,5.1153 248.7431,-486.808342 z m 12.1505,6.208462 -248.7432,486.808358 10.2359,5.23017 248.7431,-486.808359 z m 12.1503,6.208429 -248.7431,486.808369 10.4608,5.34515 248.7432,-486.808369 z m 12.1504,6.20843 -248.7431,486.808379 10.6857,5.46006 248.7432,-486.808349 z m 12.1504,6.20848 -248.7431,486.808379 10.9106,5.57497 248.7431,-486.808379 z m 12.1504,6.20843 -248.7432,486.808349 11.1357,5.68996 248.7431,-486.808349 z m 12.1499,6.20824 -248.7431,486.808369 11.361,5.80508 248.7431,-486.808369 z m 12.1505,6.20848 -248.7431,486.808379 11.5859,5.92 248.7431,-486.808359 z m 12.1504,6.20843 -248.7432,486.808359 11.8108,6.03496 248.7432,-486.808369 z m 12.1503,6.20844 -248.7431,486.808359 12.0357,6.14989 248.7432,-486.808379 z m 12.1504,6.20848 -248.7431,486.808359 12.2607,6.26481 12.3753,6.32337 12.3736,6.32249 12.3753,6.32337 12.3754,6.32342 12.3752,6.32337 12.3754,6.32341 12.3753,6.32335 10.4651,5.34734 1.9102,0.97604 5.2326,2.67374 7.1428,3.64967 248.7431,-486.808359 -7.1427,-3.6497 -5.2327,-2.67372 -1.9102,-0.97603 -10.4651,-5.347333 -12.3753,-6.32337 -12.3753,-6.3234101 -12.3753,-6.3233676 -12.3754,-6.3234093 -12.3753,-6.32337 -12.3736,-6.32249 -12.3753,-6.32337 z"
       clip-path="url(#clipPath23150)" />
  </g>
</svg>
